<svg width="228" height="35" viewBox="0 0 228 35" fill="none" xmlns="http://www.w3.org/2000/svg">
<g filter="url(#filter0_b)">
<path d="M46.792 20.3H40.942L39.826 23H36.838L42.454 10.4H45.334L50.968 23H47.908L46.792 20.3ZM45.874 18.086L43.876 13.262L41.878 18.086H45.874ZM64.3713 10.4V23H61.9773L55.6953 15.35V23H52.8153V10.4H55.2273L61.4912 18.05V10.4H64.3713ZM73.9404 18.536V23H71.0244V18.5L66.1464 10.4H69.2424L72.6084 15.998L75.9744 10.4H78.8364L73.9404 18.536Z" fill="#1967D3"/>
<path d="M99.6404 10.4L95.5184 23H92.3864L89.6144 14.468L86.7524 23H83.6384L79.4984 10.4H82.5224L85.3664 19.256L88.3364 10.4H91.0364L93.9164 19.328L96.8504 10.4H99.6404ZM113.364 10.4V23H110.448V17.834H104.724V23H101.808V10.4H104.724V15.368H110.448V10.4H113.364ZM126.641 20.66V23H116.885V10.4H126.407V12.74H119.783V15.476H125.633V17.744H119.783V20.66H126.641ZM137.53 23L135.1 19.49H134.956H132.418V23H129.502V10.4H134.956C136.072 10.4 137.038 10.586 137.854 10.958C138.682 11.33 139.318 11.858 139.762 12.542C140.206 13.226 140.428 14.036 140.428 14.972C140.428 15.908 140.2 16.718 139.744 17.402C139.3 18.074 138.664 18.59 137.836 18.95L140.662 23H137.53ZM137.476 14.972C137.476 14.264 137.248 13.724 136.792 13.352C136.336 12.968 135.67 12.776 134.794 12.776H132.418V17.168H134.794C135.67 17.168 136.336 16.976 136.792 16.592C137.248 16.208 137.476 15.668 137.476 14.972ZM153.034 20.66V23H143.278V10.4H152.8V12.74H146.176V15.476H152.026V17.744H146.176V20.66H153.034ZM161.703 10.4H163.035V21.848H170.091V23H161.703V10.4ZM181.753 21.848V23H172.843V10.4H181.483V11.552H174.175V16.034H180.691V17.168H174.175V21.848H181.753ZM193.326 19.634H186.306L184.794 23H183.408L189.168 10.4H190.482L196.242 23H194.838L193.326 19.634ZM192.84 18.554L189.816 11.786L186.792 18.554H192.84ZM207.47 23L204.59 18.95C204.266 18.986 203.93 19.004 203.582 19.004H200.198V23H198.866V10.4H203.582C205.19 10.4 206.45 10.784 207.362 11.552C208.274 12.32 208.73 13.376 208.73 14.72C208.73 15.704 208.478 16.538 207.974 17.222C207.482 17.894 206.774 18.38 205.85 18.68L208.928 23H207.47ZM203.546 17.87C204.794 17.87 205.748 17.594 206.408 17.042C207.068 16.49 207.398 15.716 207.398 14.72C207.398 13.7 207.068 12.92 206.408 12.38C205.748 11.828 204.794 11.552 203.546 11.552H200.198V17.87H203.546ZM222.944 10.4V23H221.846L213.746 12.776V23H212.414V10.4H213.512L221.63 20.624V10.4H222.944Z" fill="#3C4852"/>
</g>
<rect width="35" height="35" rx="6" fill="#3C4852"/>
<path d="M17.5 31C13.9196 31 10.4858 29.5777 7.95406 27.0459C5.42232 24.5142 4 21.0804 4 17.5C4 13.9196 5.42232 10.4858 7.95406 7.95406C10.4858 5.42232 13.9196 4 17.5 4L17.5 11.2939C15.854 11.2939 14.2755 11.9477 13.1116 13.1116C11.9477 14.2755 11.2939 15.854 11.2939 17.5C11.2939 19.146 11.9477 20.7245 13.1116 21.8884C14.2755 23.0523 15.854 23.7061 17.5 23.7061L17.5 31Z" fill="#1967D3"/>
<path d="M21 8C23.3869 8 25.6761 8.94821 27.364 10.636C29.0518 12.3239 30 14.6131 30 17C30 19.3869 29.0518 21.6761 27.364 23.364C25.6761 25.0518 23.3869 26 21 26L21 21.1374C22.0973 21.1374 23.1497 20.7015 23.9256 19.9256C24.7015 19.1497 25.1374 18.0973 25.1374 17C25.1374 15.9027 24.7015 14.8503 23.9256 14.0744C23.1497 13.2985 22.0973 12.8626 21 12.8626L21 8Z" fill="#08BD80"/>
<defs>
<filter id="filter0_b" x="32.838" y="6.39999" width="194.106" height="20.6" filterUnits="userSpaceOnUse" color-interpolation-filters="sRGB">
<feFlood flood-opacity="0" result="BackgroundImageFix"/>
<feGaussianBlur in="BackgroundImage" stdDeviation="2"/>
<feComposite in2="SourceAlpha" operator="in" result="effect1_backgroundBlur"/>
<feBlend mode="normal" in="SourceGraphic" in2="effect1_backgroundBlur" result="shape"/>
</filter>
</defs>
</svg>
