<svg width="103" height="103" viewBox="0 0 103 103" fill="none" xmlns="http://www.w3.org/2000/svg">
<rect width="103" height="103" fill="white"/>
<rect width="103" height="103" rx="13" fill="white"/>
<path d="M51.5 92C40.7587 92 30.4574 87.733 22.8622 80.1378C15.267 72.5426 11 62.2413 11 51.5C11 40.7587 15.267 30.4574 22.8622 22.8622C30.4574 15.267 40.7587 11 51.5 11L51.5 32.8816C46.5621 32.8816 41.8264 34.8432 38.3348 38.3348C34.8432 41.8264 32.8816 46.5621 32.8816 51.5C32.8816 56.4379 34.8432 61.1736 38.3348 64.6652C41.8264 68.1568 46.5621 70.1184 51.5 70.1184L51.5 92Z" fill="#1967D3"/>
<path d="M62 26C68.8956 26 75.5088 28.5812 80.3848 33.1759C85.2607 37.7705 88 44.0022 88 50.5C88 56.9978 85.2607 63.2295 80.3848 67.8241C75.5088 72.4188 68.8956 75 62 75L62 61.763C65.17 61.763 68.2102 60.5764 70.4517 58.4641C72.6933 56.3519 73.9526 53.4871 73.9526 50.5C73.9526 47.5129 72.6933 44.6481 70.4517 42.5359C68.2102 40.4236 65.17 39.237 62 39.237L62 26Z" fill="#08BD80"/>
</svg>
