<svg width="290" height="35" viewBox="0 0 290 35" fill="none" xmlns="http://www.w3.org/2000/svg">
<g clip-path="url(#clip0)">
<g filter="url(#filter0_b)">
<path d="M52.056 22.4H44.256L42.768 26H38.784L46.272 9.2H50.112L57.624 26H53.544L52.056 22.4ZM50.832 19.448L48.168 13.016L45.504 19.448H50.832ZM75.495 9.2V26H72.303L63.927 15.8V26H60.087V9.2H63.303L71.655 19.4V9.2H75.495ZM88.2538 20.048V26H84.3658V20L77.8618 9.2H81.9898L86.4778 16.664L90.9658 9.2H94.7818L88.2538 20.048Z" fill="#1967D3"/>
<path d="M122.521 9.2L117.025 26H112.849L109.153 14.624L105.337 26H101.185L95.6646 9.2H99.6966L103.489 21.008L107.449 9.2H111.049L114.889 21.104L118.801 9.2H122.521ZM140.819 9.2V26H136.931V19.112H129.299V26H125.411V9.2H129.299V15.824H136.931V9.2H140.819ZM158.522 22.88V26H145.514V9.2H158.21V12.32H149.378V15.968H157.178V18.992H149.378V22.88H158.522ZM173.039 26L169.799 21.32H169.607H166.223V26H162.335V9.2H169.607C171.095 9.2 172.383 9.448 173.471 9.944C174.575 10.44 175.423 11.144 176.015 12.056C176.607 12.968 176.903 14.048 176.903 15.296C176.903 16.544 176.599 17.624 175.991 18.536C175.399 19.432 174.551 20.12 173.447 20.6L177.215 26H173.039ZM172.967 15.296C172.967 14.352 172.663 13.632 172.055 13.136C171.447 12.624 170.559 12.368 169.391 12.368H166.223V18.224H169.391C170.559 18.224 171.447 17.968 172.055 17.456C172.663 16.944 172.967 16.224 172.967 15.296ZM193.712 22.88V26H180.704V9.2H193.4V12.32H184.568V15.968H192.368V18.992H184.568V22.88H193.712ZM205.271 9.2H207.047V24.464H216.455V26H205.271V9.2ZM232.003 24.464V26H220.123V9.2H231.643V10.736H221.899V16.712H230.587V18.224H221.899V24.464H232.003ZM247.434 21.512H238.074L236.058 26H234.21L241.89 9.2H243.642L251.322 26H249.45L247.434 21.512ZM246.786 20.072L242.754 11.048L238.722 20.072H246.786ZM266.293 26L262.453 20.6C262.021 20.648 261.573 20.672 261.109 20.672H256.597V26H254.821V9.2H261.109C263.253 9.2 264.933 9.712 266.149 10.736C267.365 11.76 267.973 13.168 267.973 14.96C267.973 16.272 267.637 17.384 266.965 18.296C266.309 19.192 265.365 19.84 264.133 20.24L268.237 26H266.293ZM261.061 19.16C262.725 19.16 263.997 18.792 264.877 18.056C265.757 17.32 266.197 16.288 266.197 14.96C266.197 13.6 265.757 12.56 264.877 11.84C263.997 11.104 262.725 10.736 261.061 10.736H256.597V19.16H261.061ZM286.925 9.2V26H285.461L274.661 12.368V26H272.885V9.2H274.349L285.173 22.832V9.2H286.925Z" fill="#3C4852"/>
</g>
<rect width="35" height="35" rx="6" fill="#3C4852"/>
<path d="M17.5 31C13.9196 31 10.4858 29.5777 7.95406 27.0459C5.42232 24.5142 4 21.0804 4 17.5C4 13.9196 5.42232 10.4858 7.95406 7.95406C10.4858 5.42232 13.9196 4 17.5 4L17.5 11.2939C15.854 11.2939 14.2755 11.9477 13.1116 13.1116C11.9477 14.2755 11.2939 15.854 11.2939 17.5C11.2939 19.146 11.9477 20.7245 13.1116 21.8884C14.2755 23.0523 15.854 23.7061 17.5 23.7061L17.5 31Z" fill="#1967D3"/>
<path d="M21 8C23.3869 8 25.6761 8.94821 27.364 10.636C29.0518 12.3239 30 14.6131 30 17C30 19.3869 29.0518 21.6761 27.364 23.364C25.6761 25.0518 23.3869 26 21 26L21 21.1374C22.0973 21.1374 23.1497 20.7015 23.9256 19.9256C24.7015 19.1497 25.1374 18.0973 25.1374 17C25.1374 15.9027 24.7015 14.8503 23.9256 14.0744C23.1497 13.2985 22.0973 12.8626 21 12.8626L21 8Z" fill="#08BD80"/>
</g>
<defs>
<filter id="filter0_b" x="34.784" y="5.2" width="256.141" height="24.8" filterUnits="userSpaceOnUse" color-interpolation-filters="sRGB">
<feFlood flood-opacity="0" result="BackgroundImageFix"/>
<feGaussianBlur in="BackgroundImage" stdDeviation="2"/>
<feComposite in2="SourceAlpha" operator="in" result="effect1_backgroundBlur"/>
<feBlend mode="normal" in="SourceGraphic" in2="effect1_backgroundBlur" result="shape"/>
</filter>
<clipPath id="clip0">
<rect width="290" height="35" fill="white"/>
</clipPath>
</defs>
</svg>
